<?xml version="1.0" encoding="UTF-8"?>
<svg id="Capa_2" data-name="Capa 2" xmlns="http://www.w3.org/2000/svg" viewBox="0 0 181.27 181.27">
  <g id="Capa_1-2" data-name="Capa 1">
    <rect fill="#ffffff" width="181.27" height="181.27"/>
    <path fill="#75b629" d="M108.03,17.05c2.89-.45,4.15.58,6.48,1.86,8,4.37,15.68,9.37,23.65,13.8,3.63,2.73,3.55,7.77-.13,10.45-5.6,4.07-13.26,7.02-19.01,11.08-3.46,2.87-3.56,8.19,0,11.03,7.38,4.92,16.07,8.72,23.38,13.64,2.82,1.9,4.4,4.46,4.66,7.9-.44,9.46.55,19.41,0,28.81-.35,6.05-3.12,11.19-7.95,14.78-7.7,5.72-17.39,10.06-25.33,15.59-3.51,1.67-6.2,1.43-9.6-.28-7.72-3.88-15.12-9.36-22.88-13.27-4.57-1.62-9.06,1.35-9.56,6.15-.65,6.22.55,13.45-.02,19.68-.51,5.52-6.14,7.39-10.76,5.12-7.75-3.82-15.25-9.42-23-13.37-2.41-1.32-3.72-3.52-3.92-6.25v-74.93c.37-5.91,3.45-10.99,8.47-14.04l63.78-37.11c.52-.21,1.21-.55,1.74-.64ZM100.88,65.11c-.61.1-1.47.51-2.04.77-8,3.74-15.92,10.01-23.95,13.93-1.89,1.44-3,3.29-3.19,5.69.63,9.36-.82,19.77.01,29.01.46,5.1,5.77,8.18,10.4,5.86,7.41-5.31,16.98-9.4,24.18-14.79,1.76-1.32,2.91-3.35,3.1-5.56.79-9.15-.56-19.47-.06-28.74-.66-4.14-4.26-6.83-8.44-6.17Z"/>
  </g>
</svg>